<svg id="visual" viewBox="0 0 960 540" width="960" height="540" xmlns="http://www.w3.org/2000/svg" xmlns:xlink="http://www.w3.org/1999/xlink" version="1.1"><path d="M0 465L22.8 458.8C45.7 452.7 91.3 440.3 137 440.3C182.7 440.3 228.3 452.7 274 448.5C319.7 444.3 365.3 423.7 411.2 403.8C457 384 503 365 548.8 362.3C594.7 359.7 640.3 373.3 686 391.2C731.7 409 777.3 431 823 427C868.7 423 914.3 393 937.2 378L960 363L960 541L937.2 541C914.3 541 868.7 541 823 541C777.3 541 731.7 541 686 541C640.3 541 594.7 541 548.8 541C503 541 457 541 411.2 541C365.3 541 319.7 541 274 541C228.3 541 182.7 541 137 541C91.3 541 45.7 541 22.8 541L0 541Z" fill="#bacdeb" stroke-linecap="round" stroke-linejoin="miter"></path></svg>